<svg viewBox="8.359 66.367 176.246 60.137" xmlns="http://www.w3.org/2000/svg"><g fill-rule="evenodd" clip-rule="evenodd"><path d="M13.339 73.599l20.753 11.766v33.793l4.836 7.255h145.324l-4.836-7.255-20.754-11.765V73.599l-4.836-7.254H8.504l4.835 7.254z" fill="#a02d33"/><path d="M148.992 66.344c-.838.152-140.893.073-140.488 0l25.588 14.507v38.306h145.324l-25.59-14.507V66.344h-4.834z" fill="#cc262d"/><path d="M72.125 76.844h-4.798V71.18H26.839l12.089 6.854v36.288h17.935V97.188h4.797v17.135h16.13V97.188h4.798v17.135h18.024V71.18H72.125v5.664zm88.955 37.478l-12.088-6.854V95.097l-15.727-.486-2.959-4.431 18.686.119V71.18h-43.58v43.142h55.668z" fill="#fff"/></g></svg>